<?xml version="1.0" encoding="UTF-8"?>
<svg width="131px" height="176px" viewBox="0 0 131 176" version="1.1" xmlns="http://www.w3.org/2000/svg" xmlns:xlink="http://www.w3.org/1999/xlink">
    <!-- Generator: Sketch 45.1 (43504) - http://www.bohemiancoding.com/sketch -->
    <title>mailbox</title>
    <desc>Created with Sketch.</desc>
    <defs>
        <rect id="path-1" x="0" y="0" width="39" height="34"></rect>
    </defs>
    <g id="Page-1" stroke="none" stroke-width="1" fill="none" fill-rule="evenodd">
        <g id="Subscribe_email" transform="translate(-334.000000, -106.000000)">
            <g id="Modal" transform="translate(100.000000, 84.000000)">
                <g id="mailbox" transform="translate(230.000000, 22.000000)">
                    <g id="Layer_2">
                        <g>
                            <g id="Shadow" transform="translate(61.000000, 168.000000)" fill-rule="nonzero" fill="#2D2D2D" opacity="0.1">
                                <path d="M0.78,3.68 C0.78,1.8 33.06,0.28 47.34,0.28 C61.62,0.28 73.2,1.8 73.2,3.68 C73.2,5.56 61.62,7.08 47.34,7.08 C33.06,7.08 0.78,5.56 0.78,3.68 Z" id="Shape"></path>
                            </g>
                            <g id="Layer_1-2">
                                <rect id="Rectangle-path" fill="#E8724D" fill-rule="nonzero" x="63.96" y="76.02" width="12.36" height="95.24"></rect>
                                <path d="M25.3,138.37 C24.8709687,138.37847 24.5029088,138.06583 24.4418668,137.641079 C24.3808247,137.216328 24.6459467,136.812692 25.06,136.7 C27.0083364,136.092919 28.1167442,134.042533 27.5575479,132.079917 C26.9983516,130.117301 24.9757191,128.959024 23,129.47 C22.7070422,129.555744 22.3905943,129.478683 22.1698591,129.267846 C21.9491239,129.057009 21.8576364,128.744427 21.9298591,128.447846 C22.0020817,128.151265 22.2270422,127.915744 22.52,127.83 C25.4222564,126.985004 28.4600043,128.652744 29.305,131.555 C30.1499957,134.457256 28.4822564,137.495004 25.58,138.34 C25.4889839,138.365499 25.3943521,138.375638 25.3,138.37 Z" id="Shape" fill="#E8724D" fill-rule="nonzero"></path>
                                <g id="Group" opacity="0.15" transform="translate(24.000000, 131.000000)" fill-rule="nonzero" fill="#F2F3F4">
                                    <path d="M1.3,6.84 C1.13650026,6.84584332 0.9949241,6.72741882 0.971786983,6.565459 C0.948649865,6.40349918 1.05140412,6.25017035 1.21,6.21 C3.48720205,5.54328697 4.79395995,3.15800628 4.13,0.88 C4.08228474,0.766750352 4.10363954,0.636180037 4.1849476,0.544032178 C4.26625566,0.451884319 4.39315142,0.414439669 4.51146049,0.447684112 C4.62976956,0.480928555 4.718589,0.578988437 4.74,0.7 C5.50025407,3.31762085 3.99663421,6.05635703 1.38,6.82 L1.3,6.84 Z" id="Shape"></path>
                                </g>
                                <path d="M24.68,76.0900772 L24.68,76.0900772 C28.9904681,76.0767896 33.1289453,77.7798098 36.181608,80.8230913 C39.2342707,83.8663727 40.9500205,87.9995886 40.95,92.3100772 L40.95,131.680077 L8.46,131.680077 L8.46,92.3100772 C8.46,83.3520185 15.7219414,76.0900772 24.68,76.0900772 Z" id="Shape" fill="#D36142" fill-rule="nonzero" transform="translate(24.705000, 103.885039) rotate(180.000000) translate(-24.705000, -103.885039) "></path>
                                <path d="M113.7,36.71 L113.7,76.23 L22.7,76.23 L22.7,20.71 L97.7,20.71 C106.536556,20.71 113.7,27.873444 113.7,36.71 Z" id="Shape" fill="#E8724D" fill-rule="nonzero"></path>
                                <path d="M22.72,76.2200031 L22.72,76.2200031 C27.0218115,76.2200031 31.1474319,77.928891 34.189272,80.9707311 C37.231112,84.0125712 38.94,88.1381916 38.94,92.4400031 L38.94,131.680003 L6.49,131.680003 L6.49,92.4400031 C6.48999918,88.1364585 8.20025978,84.0093218 11.244263,80.9671941 C14.2882662,77.9250664 18.4164562,76.2173499 22.72,76.2200031 Z" id="Shape" fill="#E8724D" fill-rule="nonzero" transform="translate(22.715000, 103.950002) rotate(180.000000) translate(-22.715000, -103.950002) "></path>
                                <circle id="Oval" fill="#F77E66" fill-rule="nonzero" cx="48.95" cy="51.13" r="4.34"></circle>
                                <circle id="Oval" fill="#F77E66" fill-rule="nonzero" cx="48.95" cy="51.13" r="2.44"></circle>
                                <polygon id="Shape" fill="#F77E66" fill-rule="nonzero" points="60.67 6.12 47.56 6.76 47.56 0 60.67 0.64"></polygon>
                                <rect id="Rectangle-path" fill="#E8724D" fill-rule="nonzero" x="38.94" y="72.46" width="74.76" height="3.69"></rect>
                                <rect id="Rectangle-path" fill="#E8724D" fill-rule="nonzero" x="38.94" y="72.46" width="16.68" height="3.69"></rect>
                                <rect id="Rectangle-path" fill="#D86648" fill-rule="nonzero" x="55.62" y="72.46" width="16.68" height="3.69"></rect>
                                <rect id="Rectangle-path" fill="#E8724D" fill-rule="nonzero" x="72.3" y="72.46" width="16.68" height="3.69"></rect>
                                <rect id="Rectangle-path" fill="#D86648" fill-rule="nonzero" x="88.97" y="72.46" width="16.68" height="3.69"></rect>
                                <path d="M30.2,22.33 L30.04,22.33 C27.0981075,21.7328633 25.1871159,18.8763955 25.7578807,15.929273 C26.3286456,12.9821505 29.1678839,11.0456527 32.12,11.59 C32.4201031,11.6489488 32.665961,11.8635229 32.7649614,12.1528942 C32.8639617,12.4422655 32.8010641,12.7624717 32.5999613,12.9928942 C32.3988586,13.2233167 32.0901031,13.3289488 31.79,13.27 C29.7493079,12.8751164 27.7748836,14.2093079 27.3800001,16.25 C26.9851165,18.2906921 28.3193079,20.2651164 30.36,20.66 C30.8068024,20.7266183 31.1234447,21.1310912 31.0808666,21.5808217 C31.0382886,22.0305522 30.651366,22.3684154 30.2,22.35 L30.2,22.33 Z" id="Shape" fill="#E8724D" fill-rule="nonzero"></path>
                                <path d="M26.54,16.06 C26.7740921,14.8487613 27.4828852,13.781454 28.5084783,13.0958469 C29.5340713,12.4102398 30.7912691,12.1632858 32,12.41" id="Shape" stroke="#F0F5F7" stroke-width="0.75" opacity="0.15" stroke-linecap="round"></path>
                                <path d="M45.48,51.13 C45.48,49.2135719 47.0335719,47.66 48.95,47.66" id="Shape" stroke="#FFFFFF" stroke-width="3" opacity="0.1" stroke-linecap="round"></path>
                                <path d="M22.72,79.64 L22.72,79.64 C30.5695836,79.6455201 36.9300019,86.0104144 36.93,93.86 L36.93,128.44 L8.5,128.44 L8.5,93.86 C8.5,86.0065109 14.8665109,79.64 22.72,79.64 Z" id="Shape" stroke="#2D2D2D" stroke-width="5" opacity="0.05" transform="translate(22.715000, 104.040000) rotate(-180.000000) translate(-22.715000, -104.040000) "></path>
                                <polygon id="Shape" fill="#204458" fill-rule="nonzero" opacity="0.2" points="76.32 78.8 63.96 82.42 63.96 76.02 76.32 76.02"></polygon>
                                <path d="M66.5,89.26 L66.5,163.14" id="Shape" stroke="#FFFFFF" stroke-width="12" opacity="0.1" stroke-linecap="round"></path>
                                <circle id="Oval" fill="#E8724D" fill-rule="nonzero" cx="46.51" cy="74.41" r="1"></circle>
                                <circle id="Oval" fill="#E8724D" fill-rule="nonzero" cx="63.96" cy="74.41" r="1"></circle>
                                <circle id="Oval" fill="#E8724D" fill-rule="nonzero" cx="81.41" cy="74.41" r="1"></circle>
                                <circle id="Oval" fill="#E8724D" fill-rule="nonzero" cx="98.85" cy="74.41" r="1"></circle>
                                <rect id="Rectangle-path" fill="#141414" fill-rule="nonzero" opacity="0.1" x="39.07" y="70.89" width="74.63" height="1.57"></rect>
                                <path d="M113.7,36.71 L113.7,40.19 L113.44,40.19 L22.73,40.19 L22.73,20.71 L97.73,20.71 C106.554838,20.7265466 113.700016,27.8851465 113.7,36.71 L113.7,36.71 Z" id="Shape" fill="#FFFFFF" fill-rule="nonzero" opacity="0.05"></path>
                                <path d="M39,36.91 L39,76.23 L6.5,76.23 L6.5,36.91 C6.50000013,27.9464186 13.7664186,20.6800002 22.73,20.6800002 C31.6935814,20.6800002 38.9599999,27.9464186 38.96,36.91 L39,36.91 Z" id="Shape" fill="#662B1B" fill-rule="nonzero"></path>
                                <g id="mail" transform="translate(0.000000, 44.100860)">
                                    <mask id="mask-2" fill="white">
                                        <use xlink:href="#path-1"></use>
                                    </mask>
                                    <g id="Mask"></g>
                                    <g mask="url(#mask-2)">
                                        <g transform="translate(4.000000, 4.000000)">
                                            <polygon id="Star" fill="#E63D3D" transform="translate(23.500259, 14.449822) scale(-1, 1) rotate(-90.000000) translate(-23.500259, -14.449822) " points="30.2422169 37.1728985 9.95846466 37.1728985 9.95846466 2.71136003 9.95846466 -8.27325536 33.6421353 31.3575139 37.0420536 37.1728985"></polygon>
                                            <polygon id="Star" fill="#D02525" transform="translate(26.771832, 14.411717) rotate(-90.000000) translate(-26.771832, -14.411717) " points="33.5137899 37.1347938 13.2300376 37.1347938 13.2300376 2.67325536 13.2300376 -8.31136003 36.9137082 31.3194092 40.3136266 37.1347938"></polygon>
                                            <polygon id="Star-2" fill="#ED5454" transform="translate(25.136046, 9.934615) rotate(-180.000000) translate(-25.136046, -9.934615) " points="25.4632029 19.8153846 0.490196078 19.8153846 0.490196078 18.7923077 25.4632029 0.0538461538 49.7818951 18.7923077 49.7818951 19.8153846"></polygon>
                                        </g>
                                    </g>
                                </g>
                                <path d="M33.49,121.2 C30.9546548,124.067194 27.3840911,125.809696 23.5639053,126.04412 C19.7437195,126.278545 15.9868916,124.985687 13.12,122.45" id="Shape" fill="#FFFFFF" fill-rule="nonzero" opacity="0.08"></path>
                                <path d="M57.91,24.77 L94.85,24.77" id="Shape" stroke="#FFFFFF" stroke-width="7" opacity="0.1" stroke-linecap="round"></path>
                                <rect id="Rectangle-path" fill="#F77E66" fill-rule="nonzero" x="47.56" y="5.71" width="2.78" height="42.4"></rect>
                            </g>
                            <g id="Flower" transform="translate(41.000000, 129.000000)">
                                <path d="M34.69,42.28 C30.8682952,30.8330543 35.4755053,18.2649175 45.79,12" id="Shape" stroke="#9EF2DE" stroke-width="2" stroke-linecap="round"></path>
                                <path d="M58.1,8.64 C58.1,9.79 52.2,9.37 51.66,10.3 C51.12,11.23 54.4,16.16 53.44,16.72 C52.48,17.28 49.93,12 48.78,12 C47.63,12 45.04,17.29 44.11,16.75 C43.18,16.21 46.45,11.3 45.89,10.34 C45.33,9.38 39.45,9.83 39.45,8.68 C39.45,7.53 45.35,7.95 45.89,7.02 C46.43,6.09 43.15,1.16 44.11,0.6 C45.07,0.04 47.62,5.35 48.78,5.35 C49.94,5.35 52.52,0.06 53.45,0.6 C54.38,1.14 51.1,6 51.66,7 C52.22,8 58.1,7.49 58.1,8.64 Z" id="Shape" fill="#F8B883" fill-rule="nonzero"></path>
                                <path d="M25.24,42.28 C28.1482126,30.5471016 22.5370546,18.3653648 11.73,12.95" id="Shape" stroke="#6CFFDC" stroke-width="2" stroke-linecap="round"></path>
                                <path d="M5.18,10.15 C5.27,11.3 0.18,14.3 0.82,15.15 C1.46,16 6.07,12.38 7.07,12.86 C8.07,13.34 8.07,19.24 9.24,19.15 C10.41,19.06 9.49,13.21 10.38,12.59 C11.27,11.97 16.44,14.85 16.92,13.85 C17.4,12.85 11.92,10.73 11.81,9.58 C11.7,8.43 16.81,5.43 16.17,4.58 C15.53,3.73 10.92,7.35 9.92,6.87 C8.92,6.39 8.92,0.49 7.75,0.58 C6.58,0.67 7.5,6.52 6.61,7.14 C5.72,7.76 0.55,4.88 0.07,5.88 C-0.41,6.88 5.09,9 5.18,10.15 Z" id="Shape" fill="#F15C5C" fill-rule="nonzero"></path>
                            </g>
                        </g>
                    </g>
                </g>
            </g>
        </g>
    </g>
</svg>